<svg width="48" height="48" viewBox="0 0 48 48" fill="none" xmlns="http://www.w3.org/2000/svg">
<path d="M4.12306 24.696C3.95638 24.247 3.95638 23.753 4.12306 23.304C5.74646 19.3677 8.50209 16.0021 12.0406 13.6338C15.5791 11.2655 19.7411 10.0012 23.9991 10.0012C28.257 10.0012 32.419 11.2655 35.9575 13.6338C39.496 16.0021 42.2517 19.3677 43.8751 23.304C44.0417 23.753 44.0417 24.247 43.8751 24.696C42.2517 28.6323 39.496 31.9979 35.9575 34.3662C32.419 36.7345 28.257 37.9988 23.9991 37.9988C19.7411 37.9988 15.5791 36.7345 12.0406 34.3662C8.50209 31.9979 5.74646 28.6323 4.12306 24.696Z" stroke="#00BFFF" stroke-width="4" stroke-linecap="round" stroke-linejoin="round"/>
<path d="M24 30C27.3137 30 30 27.3137 30 24C30 20.6863 27.3137 18 24 18C20.6863 18 18 20.6863 18 24C18 27.3137 20.6863 30 24 30Z" stroke="#00BFFF" stroke-width="4" stroke-linecap="round" stroke-linejoin="round"/>
</svg>
