<svg width="32" height="32" viewBox="0 0 32 32" fill="none" xmlns="http://www.w3.org/2000/svg">
<path d="M15.9993 29.3333C23.3631 29.3333 29.3327 23.3638 29.3327 16C29.3327 8.63616 23.3631 2.66663 15.9993 2.66663C8.63555 2.66663 2.66602 8.63616 2.66602 16C2.66602 23.3638 8.63555 29.3333 15.9993 29.3333Z" stroke="#FF1A53" stroke-width="2.66667" stroke-linecap="round" stroke-linejoin="round"/>
<path d="M16 24C20.4183 24 24 20.4183 24 16C24 11.5817 20.4183 8 16 8C11.5817 8 8 11.5817 8 16C8 20.4183 11.5817 24 16 24Z" stroke="#FF1A53" stroke-width="2.66667" stroke-linecap="round" stroke-linejoin="round"/>
<path d="M16.0007 18.6667C17.4734 18.6667 18.6673 17.4728 18.6673 16C18.6673 14.5273 17.4734 13.3334 16.0007 13.3334C14.5279 13.3334 13.334 14.5273 13.334 16C13.334 17.4728 14.5279 18.6667 16.0007 18.6667Z" stroke="#FF1A53" stroke-width="2.66667" stroke-linecap="round" stroke-linejoin="round"/>
</svg>
