<svg width="48" height="48" viewBox="0 0 48 48" fill="none" xmlns="http://www.w3.org/2000/svg">
<path d="M9 32.9999C6 35.5199 5 42.9999 5 42.9999C5 42.9999 12.48 41.9999 15 38.9999C16.42 37.3199 16.4 34.7399 14.82 33.1799C14.0426 32.4379 13.0186 32.0092 11.9445 31.976C10.8703 31.9427 9.82175 32.3074 9 32.9999Z" stroke="#A02BEE" stroke-width="4" stroke-linecap="round" stroke-linejoin="round"/>
<path d="M24 30L18 24C19.0643 21.2389 20.4044 18.5921 22 16.1C24.3304 12.374 27.5752 9.30611 31.426 7.18819C35.2768 5.07028 39.6053 3.97275 44 4.00001C44 9.44001 42.44 19 32 26C29.4738 27.5975 26.7937 28.9375 24 30Z" stroke="#A02BEE" stroke-width="4" stroke-linecap="round" stroke-linejoin="round"/>
<path d="M18 24H8C8 24 9.1 17.94 12 16C15.24 13.84 22 16 22 16" stroke="#A02BEE" stroke-width="4" stroke-linecap="round" stroke-linejoin="round"/>
<path d="M24 30V40C24 40 30.06 38.9 32 36C34.16 32.76 32 26 32 26" stroke="#A02BEE" stroke-width="4" stroke-linecap="round" stroke-linejoin="round"/>
</svg>
